<svg width="339" height="281" viewBox="0 0 339 281" fill="none" xmlns="http://www.w3.org/2000/svg">
<path fill-rule="evenodd" clip-rule="evenodd" d="M21 265.514C21 258.067 87.7096 252.029 170 252.029C252.29 252.029 319 258.067 319 265.514C319 272.962 252.29 279 170 279C87.7096 279 21 272.962 21 265.514Z" fill="#DCE0E9"/>
<path d="M124.446 249.256C120.548 249.256 116.643 249.25 112.744 249.244C112.738 190.145 112.732 131.047 112.727 71.9478C116.637 71.9478 120.548 71.9536 124.464 71.9595C124.464 72.4006 124.476 72.8416 124.482 73.2826C124.482 87.4781 124.482 101.674 124.482 115.863C124.476 160.326 124.464 204.794 124.458 249.256H124.446Z" fill="#9ED4AD"/>
<path d="M141.869 249.244C137.97 249.244 134.065 249.256 130.167 249.256C130.161 248.156 130.143 247.063 130.143 245.963C130.143 188.405 130.143 130.841 130.143 73.2826C130.143 72.8416 130.155 72.4006 130.161 71.9595C134.071 71.9595 137.982 71.9536 141.892 71.9478C141.898 128.3 141.91 184.647 141.916 241C141.916 243.746 141.892 246.492 141.875 249.238L141.869 249.244Z" fill="#9ED4AD"/>
<path d="M153.668 71.8296C155.702 71.8708 157.743 71.9119 159.778 71.959C159.783 124.184 159.789 176.408 159.819 228.627C159.819 229.597 159.419 230.679 160.277 231.532C159.76 232.114 159.272 232.72 158.731 233.278C154.379 237.741 152.298 243.11 152.286 249.314C151.18 249.32 150.075 249.332 148.969 249.338C148.969 190.215 148.969 130.97 148.969 71.8531C150.533 71.8061 152.104 71.8825 153.668 71.8355V71.8296Z" fill="#9ED4AD"/>
<path d="M94.8329 71.9541C96.8734 71.9129 98.9139 71.8659 100.949 71.8247C102.642 71.8423 104.101 71.4366 105.659 71.7012C105.659 130.753 105.647 190.281 105.641 249.333C104.536 249.327 103.43 249.315 102.325 249.309C102.278 248.069 102.336 246.845 102.125 245.587C101.178 239.965 98.273 235.473 94.3271 231.539C95.1916 230.686 94.7917 229.604 94.7917 228.634C94.8211 176.409 94.8211 124.179 94.8329 71.9541Z" fill="#9ED4AD"/>
<path d="M77.8545 71.9712C81.4592 71.9712 85.0581 71.9654 88.6628 71.9595C88.6687 123.89 88.6746 175.821 88.6863 227.751C85.1933 226.416 81.6239 225.434 77.8545 225.393C77.8545 174.25 77.8545 123.114 77.8545 71.9712Z" fill="#9ED4AD"/>
<path d="M165.939 71.9546C169.543 71.9546 173.148 71.9605 176.747 71.9663C176.747 123.109 176.747 174.246 176.747 225.388C172.942 225.294 169.42 226.464 165.915 227.746C165.921 175.816 165.927 123.885 165.939 71.9546Z" fill="#9ED4AD"/>
<path d="M62.3363 231.055C62.2951 230.196 62.2128 229.338 62.2128 228.479C62.2069 181.23 62.2422 133.986 62.1364 86.7362C62.1305 83.0609 62.3128 79.6973 64.612 76.6865C66.2233 74.5695 68.2344 73.0935 70.7865 72.3525C70.7865 123.695 70.7865 175.032 70.7865 226.374C67.9698 227.938 65.153 229.497 62.3363 231.061V231.055Z" fill="#9ED4AD"/>
<path d="M183.834 72.7476C188.062 73.4238 191.996 77.7224 192.307 83.1031C192.39 84.5908 192.401 86.0786 192.401 87.5664C192.401 134.457 192.401 181.354 192.401 228.245C192.401 229.18 192.319 230.121 192.278 231.056C189.461 229.492 186.644 227.933 183.828 226.369C183.828 175.162 183.828 123.955 183.834 72.7476Z" fill="#9ED4AD"/>
<path d="M192.107 86.1592V211.448" stroke="black" stroke-width="2" stroke-linecap="round"/>
<path d="M81.2749 86.1592V221.086" stroke="black" stroke-width="2" stroke-linecap="round"/>
<path d="M100.55 86.1592V230.723" stroke="black" stroke-width="2" stroke-linecap="round"/>
<path d="M119.826 86.1592V240.361" stroke="black" stroke-width="2" stroke-linecap="round"/>
<path d="M134.282 86.1592V240.361" stroke="black" stroke-width="2" stroke-linecap="round"/>
<path d="M153.557 86.1592V230.723" stroke="black" stroke-width="2" stroke-linecap="round"/>
<path d="M172.833 86.1592V221.086" stroke="black" stroke-width="2" stroke-linecap="round"/>
<path d="M112.72 71.9485C112.726 131.047 112.732 190.146 112.738 249.245C110.532 249.545 108.321 249.404 106.11 249.327C106.804 248.339 106.575 247.21 106.575 246.128C106.587 219.631 106.587 193.128 106.581 166.63C106.575 135.111 106.563 103.197 106.551 71.6839C107.375 71.584 108.198 71.6016 109.021 71.778C110.256 71.8368 111.485 71.8956 112.72 71.9544V71.9485Z" fill="#7EBE90"/>
<path d="M141.87 249.244C141.882 246.498 141.911 243.752 141.911 241.005C141.911 184.653 141.9 128.306 141.888 71.9533C143.117 71.8945 144.352 71.8357 145.581 71.771C146.404 71.8298 147.227 71.7651 148.051 71.8239C148.051 130.952 148.051 190.204 148.045 249.326C145.986 249.397 143.922 249.544 141.87 249.244Z" fill="#7EBE90"/>
<path d="M130.133 73.2817C130.133 130.84 130.133 188.404 130.133 245.962C130.133 247.062 130.151 248.155 130.157 249.255C128.251 249.484 126.346 249.484 124.435 249.255C124.441 204.793 124.453 160.325 124.459 115.862C124.459 101.667 124.459 87.4713 124.459 73.2817C126.346 73.2817 128.234 73.2817 130.116 73.2817H130.133Z" fill="#7EBE90"/>
<path d="M177.706 71.9546C177.706 122.662 177.7 174.687 177.694 225.394C179.87 224.877 181.728 226.37 183.821 226.37C183.821 175.163 183.821 123.956 183.827 72.7484C183.78 72.7249 181.887 72.3545 177.7 71.9546H177.706Z" fill="#7EBE90"/>
<path d="M177.706 71.9546C177.706 122.662 177.7 174.687 177.694 225.394C179.87 224.877 181.728 226.37 183.821 226.37C183.821 175.163 183.821 123.956 183.827 72.7484C183.78 72.7249 181.887 72.3545 177.7 71.9546H177.706Z" fill="#7EBE90"/>
<path d="M70.7871 226.37C70.7871 175.028 70.7871 123.691 70.7871 72.3486C71.9103 72.0722 72.6454 71.9017 73.6156 71.9487C74.0508 74.0186 75.7209 73.0425 76.8969 73.2836C76.8969 123.985 76.9028 174.692 76.9087 225.394C74.7506 225.006 72.8394 226.141 70.7812 226.37H70.7871Z" fill="#7EBE90"/>
<path d="M100.459 36.1299C98.8653 36.4415 97.9891 36.1299 98.1185 34.1599C98.2891 31.5842 98.1185 28.9909 98.1714 26.4035C98.2361 23.2104 99.7121 21.6992 102.946 21.6874C119.171 21.6521 135.401 21.658 151.625 21.6874C154.706 21.6874 156.376 23.3986 156.435 26.4859C156.482 28.8381 156.306 31.202 156.482 33.5366C156.653 35.8005 155.783 36.5709 153.642 36.1534C150.972 35.4183 148.261 35.7947 145.568 35.9123C145.104 35.8711 144.627 35.7476 144.174 35.8005C142.087 36.024 140.376 35.8946 140.94 33.0132C141.128 32.037 140.452 31.8665 139.641 31.8665C131.355 31.9018 123.069 31.9371 114.784 31.9312C113.619 31.9312 112.961 32.2311 113.178 33.5072C113.496 35.3536 112.737 36.0652 110.897 35.8064C110.291 35.7182 109.656 35.8711 109.033 35.9123C106.169 35.8241 103.299 35.4007 100.453 36.1416L100.459 36.1299Z" fill="#7EBE90"/>
<path d="M88.6871 227.751C88.6812 175.821 88.6753 123.89 88.6636 71.9595C90.7159 71.9595 92.774 71.9595 94.8263 71.9595C94.8204 124.184 94.8146 176.414 94.7852 228.639C94.7852 229.609 95.185 230.691 94.3206 231.544C93.8443 231.085 93.3621 230.627 92.8858 230.174C93.5738 229.104 93.3915 227.904 93.3915 226.74C93.3915 176.679 93.3915 126.624 93.3915 76.5639C93.3915 76.017 93.3503 75.4642 93.3915 74.9174C93.4973 73.6883 92.9446 73.2885 91.7391 73.2649C89.381 73.2179 90.1102 74.9409 90.1102 76.0876C90.0808 126.93 90.0866 177.773 90.0866 228.616L88.6753 227.757L88.6871 227.751Z" fill="#7EBE90"/>
<path d="M165.938 71.9536C165.933 123.884 165.927 175.815 165.915 227.745C165.45 227.928 164.986 228.11 164.521 228.286C164.515 177.773 164.509 127.254 164.504 76.7404C164.504 76.1111 164.462 75.4819 164.509 74.8586C164.609 73.5884 163.968 73.2826 162.81 73.2532C160.634 73.2003 161.222 74.7704 161.222 75.8818C161.205 126.319 161.205 176.756 161.205 227.192C161.205 228.21 161.128 229.239 161.716 230.156C161.234 230.609 160.758 231.068 160.275 231.521C159.411 230.668 159.817 229.586 159.817 228.616C159.787 176.391 159.782 124.166 159.776 71.9478C161.828 71.9478 163.886 71.9478 165.938 71.9478V71.9536Z" fill="#7EBE90"/>
<path d="M192.296 246.186C192.361 246.292 192.402 246.41 192.438 246.528C192.238 247.486 192.314 248.439 192.514 249.391C192.114 255.607 189.638 260.564 183.993 263.669C177.613 267.18 171.985 266.374 166.852 262.799C164.111 260.894 162.351 257.57 160.787 254.818C159.887 253.242 160.301 251.45 160.183 249.427C160.23 249.274 160.236 249.121 160.201 248.968C160.224 248.733 160.248 248.498 160.277 248.268C161.048 241.447 164.699 236.543 171.115 234.543C177.113 232.667 182.993 233.432 187.786 238.371C189.997 240.647 191.167 243.37 192.308 246.186H192.296ZM176.013 238.577C170.356 237.701 164.858 244.375 164.829 249.515C164.793 255.848 170.903 261.352 176.143 261.146C182.4 260.899 187.433 256.636 187.563 249.991C187.698 243.046 183.099 238.595 176.013 238.577Z" fill="#6B6A68"/>
<path d="M94.4367 249.432C93.7369 258.053 89.2384 263.839 80.8881 265.686C75.8897 266.791 69.2741 264.998 65.5341 259.723C63.3054 256.583 62.0411 253.237 62.0882 249.391C62.2881 248.303 62.394 247.209 62.1764 246.104L62.3058 246.133C62.7527 245.833 62.688 245.316 62.8409 244.886C66.3457 234.86 76.4777 231.156 85.4572 235.354C91.0731 237.977 93.9369 242.781 94.4132 248.973C94.3779 249.126 94.3838 249.279 94.4308 249.432H94.4367ZM78.0125 238.577C72.0203 238.024 66.5809 243.422 66.6926 249.72C66.8102 256.177 71.7381 261.04 77.8008 261.07C84.9985 261.105 89.4912 256.3 89.5206 249.561C89.55 243.493 85.0985 238.142 78.0125 238.571V238.577Z" fill="#414042"/>
<path d="M192.295 246.187C191.148 243.376 189.978 240.654 187.773 238.372C182.98 233.432 177.1 232.674 171.102 234.544C164.692 236.543 161.034 241.447 160.264 248.269C160.24 248.504 160.217 248.733 160.193 248.969C160.064 249.086 159.935 249.198 159.805 249.315C157.3 249.315 154.795 249.31 152.284 249.304C152.296 243.1 154.384 237.731 158.729 233.268C159.27 232.709 159.764 232.103 160.276 231.521C160.758 231.068 161.234 230.61 161.716 230.151C162.651 229.528 163.592 228.904 164.527 228.281C164.992 228.099 165.456 227.916 165.921 227.74C169.426 226.458 172.954 225.288 176.753 225.382C177.065 225.382 177.382 225.382 177.694 225.388C179.87 224.87 181.728 226.364 183.821 226.364C186.638 227.928 189.455 229.486 192.271 231.051C193.036 236.096 192.224 241.142 192.295 246.181V246.187Z" fill="#7EBE90"/>
<path d="M94.4202 248.972C93.9439 242.78 91.0801 237.976 85.4642 235.353C76.4789 231.154 66.3468 234.859 62.8479 244.885C62.695 245.32 62.7597 245.832 62.3128 246.132C62.3716 241.104 61.5601 236.076 62.3422 231.048C65.1589 229.484 67.9757 227.926 70.7924 226.362C72.8506 226.132 74.7618 224.997 76.9199 225.391C77.2316 225.391 77.5491 225.391 77.8608 225.391C81.6361 225.433 85.1996 226.415 88.6926 227.75C89.1631 228.038 89.6335 228.326 90.1039 228.614C91.0331 229.131 91.9622 229.655 92.8913 230.172C93.3676 230.631 93.8498 231.09 94.3261 231.542C98.2719 235.476 101.177 239.969 102.124 245.591C102.335 246.843 102.282 248.072 102.324 249.313C99.8185 249.313 97.3134 249.319 94.8024 249.325C94.6731 249.207 94.5437 249.096 94.4143 248.978L94.4202 248.972Z" fill="#7EBE90"/>
<path d="M145.569 35.9116C148.268 35.794 150.973 35.4176 153.643 36.1527C153.649 43.8502 153.66 64.1379 153.666 71.8354C152.102 71.8825 146.404 71.8354 145.581 71.7766C145.581 64.0203 145.575 43.6738 145.569 35.9175V35.9116Z" fill="#AFAFAF"/>
<path d="M148.05 71.8252C148.356 71.8311 148.662 71.8428 148.968 71.8487C148.968 130.971 148.968 190.217 148.968 249.333C148.662 249.333 148.35 249.333 148.044 249.328C148.044 190.199 148.044 130.948 148.05 71.8252Z" fill="#7EBE90"/>
<path d="M105.657 71.7006C105.957 71.6653 106.257 71.63 106.551 71.5947C106.563 103.108 106.575 135.11 106.581 166.629C106.581 193.127 106.581 219.63 106.575 246.127C106.575 247.209 106.804 248.338 106.11 249.326C105.951 249.326 105.793 249.326 105.64 249.332C105.64 190.28 105.651 130.752 105.657 71.7006Z" fill="#7EBE90"/>
<path d="M177.693 225.394C177.382 225.394 177.064 225.394 176.752 225.388C176.752 174.246 176.752 123.109 176.752 71.9663C177.058 71.9663 177.37 71.9605 177.676 71.9546C177.687 72.3956 177.693 72.8367 177.705 73.2777C177.705 123.979 177.699 174.687 177.693 225.388V225.394Z" fill="#7EBE90"/>
<path d="M77.8554 225.389C77.5437 225.389 76.9376 225.389 76.626 225.389C76.626 174.687 76.6511 123.95 76.6453 73.248C76.657 72.807 76.6335 72.408 76.6453 71.967C76.951 71.967 77.5496 71.9611 77.8554 71.967C77.8554 123.11 77.8554 174.246 77.8554 225.389Z" fill="#7EBE90"/>
<path d="M76.9312 71.9552C76.9195 72.3963 76.943 73.071 76.9312 73.512C75.7551 73.2709 73.8175 74.0252 73.3882 71.9553C74.4937 71.9553 75.8316 71.9494 76.9371 71.9552H76.9312Z" fill="#7EBE90"/>
<path d="M94.4201 248.973C94.5491 249.09 94.6782 249.201 94.8072 249.319C94.7016 249.407 94.5785 249.442 94.4377 249.43C94.3908 249.278 94.3849 249.125 94.4201 248.973Z" fill="#E8705F"/>
<path d="M159.8 249.319C159.929 249.201 160.058 249.09 160.187 248.973C160.222 249.125 160.216 249.278 160.169 249.43C160.029 249.442 159.905 249.401 159.8 249.319Z" fill="#7EBE90"/>
<path d="M124.458 71.9595C126.358 71.9595 128.257 71.9595 130.151 71.9595C130.145 72.4005 130.139 72.8415 130.133 73.2826C128.246 73.2826 126.358 73.2826 124.476 73.2826C124.47 72.8415 124.464 72.4005 124.458 71.9595Z" fill="#7EBE90"/>
<path d="M93.0006 236.208C91.9501 235.622 90.8996 235.031 89.8492 234.446C89.8492 176.962 89.8492 133.934 89.8758 76.4434C89.8758 75.1469 89.0513 73.1989 91.7174 73.252C93.0737 73.2786 93.6987 73.7307 93.5857 75.1203C93.5325 75.7386 93.5857 76.3636 93.5857 76.9819C93.5857 133.582 93.5857 175.718 93.5857 232.318C93.5857 233.635 93.7918 234.991 93.0139 236.201L93.0006 236.208Z" fill="#7EBE90"/>
<path d="M165.606 228.315C164.537 228.939 161.856 230.101 160.787 230.725C160.114 229.807 160.849 228.114 160.849 227.091C160.849 176.654 160.849 126.217 160.87 75.7801C160.87 74.6628 160.197 73.0927 162.685 73.1515C164.003 73.1809 164.743 73.4808 164.628 74.7569C164.568 75.3802 164.622 76.0094 164.622 76.6386C164.628 127.152 165.599 177.802 165.606 228.315Z" fill="#7EBE90"/>
<path d="M176.012 238.578C183.098 238.596 187.697 243.047 187.562 249.992C187.432 256.637 182.399 260.906 176.142 261.147C170.902 261.353 164.793 255.855 164.828 249.516C164.857 244.376 170.355 237.702 176.012 238.578ZM184.774 249.116C184.627 247.846 183.663 246.964 181.864 247.005C180.117 247.046 179.4 248.24 179.17 249.68C178.988 250.798 181.064 252.921 182.016 252.591C183.381 252.121 184.892 251.55 184.774 249.116ZM179.023 255.655C179.082 254.044 177.871 252.668 176.354 252.732C174.736 252.803 173.66 253.767 173.519 255.308C173.372 256.908 174.595 257.86 175.965 258.284C177.065 258.625 178.982 256.819 179.029 255.655H179.023ZM172.978 249.786C173.113 247.875 172.231 246.981 170.502 247.017C168.821 247.052 167.856 248.046 167.85 249.68C167.844 251.274 168.991 252.544 170.373 252.515C171.72 252.485 173.354 251.733 172.972 249.786H172.978ZM176.254 241.377C174.654 241.448 173.454 242.195 173.519 243.876C173.578 245.417 174.625 246.511 176.248 246.546C178.059 246.587 178.988 245.264 178.941 243.718C178.9 242.353 177.947 241.271 176.248 241.377H176.254Z" fill="#E2E2E1"/>
<path d="M78.0135 238.578C85.0995 238.148 89.551 243.494 89.5216 249.568C89.4922 256.307 84.9995 261.112 77.8018 261.076C71.739 261.047 66.8112 256.184 66.6936 249.727C66.5819 243.429 72.0154 238.031 78.0135 238.583V238.578ZM86.8048 249.574C86.5873 248.098 85.811 247.022 84.1233 247.022C82.4415 247.022 81.2595 247.892 81.189 249.627C81.1125 251.409 82.6062 252.473 83.9528 252.52C85.3641 252.567 86.6755 251.468 86.8107 249.574H86.8048ZM80.6774 255.496C80.9126 253.649 79.8953 252.85 78.284 252.744C76.614 252.632 75.6672 253.632 75.5555 255.213C75.432 256.913 76.3905 258.242 78.0429 258.248C79.513 258.248 80.9361 257.46 80.6833 255.496H80.6774ZM74.9674 248.91C74.8204 247.975 74.103 246.893 72.3388 247.01C70.657 247.122 69.7573 248.11 69.8279 249.78C69.8926 251.362 70.857 252.703 72.3683 252.526C73.709 252.373 75.185 251.468 74.9733 248.91H74.9674ZM80.6833 243.805C80.8479 241.824 79.6895 241.394 77.9253 241.371C75.9553 241.347 75.4967 242.559 75.5614 244.064C75.6319 245.652 76.5904 246.646 78.2664 246.557C79.8953 246.469 80.895 245.669 80.6833 243.805Z" fill="#E2E2E1"/>
<path d="M184.773 249.114C184.89 251.548 183.379 252.125 182.015 252.589C181.062 252.919 178.986 250.796 179.168 249.678C179.404 248.232 180.121 247.044 181.862 247.003C183.661 246.956 184.626 247.844 184.773 249.114Z" fill="#6B6B69"/>
<path d="M179.023 255.66C178.976 256.83 177.059 258.63 175.959 258.289C174.589 257.865 173.366 256.913 173.513 255.313C173.654 253.772 174.73 252.808 176.347 252.737C177.865 252.667 179.082 254.049 179.017 255.66H179.023Z" fill="#6B6B69"/>
<path d="M172.978 249.786C173.354 251.726 171.725 252.479 170.379 252.514C168.997 252.544 167.85 251.274 167.856 249.68C167.862 248.051 168.826 247.051 170.508 247.016C172.237 246.981 173.113 247.875 172.984 249.786H172.978Z" fill="#6B6B69"/>
<path d="M176.253 241.375C177.952 241.27 178.905 242.346 178.946 243.716C178.993 245.262 178.064 246.585 176.253 246.544C174.624 246.509 173.583 245.415 173.524 243.875C173.46 242.193 174.654 241.446 176.259 241.375H176.253Z" fill="#6B6B69"/>
<path d="M86.8106 249.579C86.6753 251.473 85.364 252.572 83.9527 252.525C82.606 252.478 81.1124 251.42 81.1889 249.632C81.2653 247.897 82.4414 247.021 84.1232 247.027C85.8109 247.027 86.593 248.109 86.8047 249.579H86.8106Z" fill="#414042"/>
<path d="M80.6834 255.502C80.9304 257.466 79.5132 258.26 78.0431 258.254C76.3907 258.248 75.438 256.919 75.5557 255.22C75.6674 253.638 76.6141 252.644 78.2842 252.75C79.9013 252.856 80.9128 253.655 80.6776 255.502H80.6834Z" fill="#414042"/>
<path d="M74.973 248.916C75.1906 251.474 73.7146 252.38 72.368 252.533C70.8567 252.703 69.8923 251.368 69.8276 249.786C69.757 248.116 70.6509 247.134 72.3386 247.017C74.1027 246.899 74.8201 247.975 74.9672 248.916H74.973Z" fill="#414042"/>
<path d="M80.6833 243.805C80.895 245.67 79.8954 246.469 78.2665 246.558C76.5905 246.652 75.6261 245.652 75.5614 244.064C75.4968 242.559 75.9554 241.347 77.9254 241.371C79.6895 241.394 80.848 241.824 80.6833 243.805Z" fill="#414042"/>
<path d="M100.458 36.1308C103.299 35.3898 106.174 35.8191 109.038 35.9014C109.038 43.6578 109.032 64.0101 109.026 71.7724L100.952 71.8253C100.958 64.8511 100.97 45.2867 100.958 38.3183C100.958 37.5656 101.211 36.7247 100.458 36.1308Z" fill="#AFAFAF"/>
<path d="M153.557 64.4749V40.3809" stroke="black" stroke-width="2" stroke-linecap="round"/>
<path d="M100.55 64.4749V40.3809" stroke="black" stroke-width="2" stroke-linecap="round"/>
<path d="M100.55 71.7031H71.6376C68.4251 71.7031 62 74.1125 62 83.7501C62 93.3877 62 190.567 62 237.952" stroke="black" stroke-width="2" stroke-linecap="round"/>
<circle cx="78.8658" cy="249.999" r="17.8658" fill="#D9D9D9" stroke="#231F20" stroke-width="2"/>
<circle cx="70.433" cy="250.239" r="3.6141" fill="#6B6A68"/>
<circle cx="79.1058" cy="241.565" r="3.6141" fill="#6B6A68"/>
<circle cx="79.1058" cy="258.431" r="3.6141" fill="#6B6A68"/>
<circle cx="87.2987" cy="250.239" r="3.6141" fill="#6B6A68"/>
<circle cx="175.242" cy="249.999" r="17.8658" fill="#D9D9D9" stroke="#231F20" stroke-width="2"/>
<circle cx="166.809" cy="250.239" r="3.6141" fill="#6B6A68"/>
<circle cx="175.482" cy="241.565" r="3.6141" fill="#6B6A68"/>
<circle cx="175.482" cy="258.431" r="3.6141" fill="#6B6A68"/>
<circle cx="183.675" cy="250.239" r="3.6141" fill="#6B6A68"/>
<path d="M259.176 176.728C252.174 167.02 239.336 162.098 221.019 162.098C202.751 162.098 190.027 166.998 183.201 176.662C173.567 190.303 179.662 207.991 179.926 208.737C180.433 210.17 181.779 211.064 183.216 211.064C183.603 211.064 183.996 211 184.382 210.863C186.199 210.219 187.15 208.223 186.506 206.405C186.454 206.257 181.331 191.413 188.902 180.694C194.344 172.989 205.15 169.082 221.019 169.082C236.941 169.082 247.865 173.017 253.488 180.778C261.222 191.451 256.487 206.329 256.441 206.47C255.834 208.301 256.824 210.278 258.654 210.885C260.483 211.493 262.459 210.502 263.066 208.671C263.313 207.929 268.987 190.33 259.176 176.728Z" fill="#8379C1"/>
<path d="M278.548 222.337L263.232 267.238C262.464 269.488 260.35 271.001 257.972 271.001H184.07C181.692 271.001 179.578 269.488 178.811 267.238L163.494 222.337C162.625 219.79 163.706 216.991 166.057 215.683C174.277 211.106 194.515 201.618 221.021 201.618C247.526 201.618 267.765 211.106 275.985 215.683C278.336 216.991 279.417 219.791 278.548 222.337Z" fill="#8379C1"/>
<path d="M275.983 215.683C267.763 211.106 247.525 201.618 221.019 201.618C219.843 201.618 218.68 201.637 217.529 201.673C242.316 202.451 261.147 211.309 269.002 215.682C271.353 216.991 272.434 219.79 271.566 222.337L256.249 267.237C255.481 269.488 253.367 271.001 250.99 271.001H257.971C260.348 271.001 262.462 269.488 263.23 267.237L278.547 222.337C279.415 219.791 278.334 216.991 275.983 215.683Z" fill="#6E61B6"/>
<path d="M246.011 240.892H196.03C184.781 240.892 175.663 231.768 175.663 220.514V208.21C175.663 207.647 175.971 207.128 176.467 206.862C180.604 204.638 200.098 194.792 221.021 194.792C241.943 194.792 261.437 204.638 265.574 206.862C266.07 207.128 266.378 207.647 266.378 208.21V220.514C266.378 231.768 257.26 240.892 246.011 240.892Z" fill="#FFD15B"/>
<path d="M265.572 206.862C261.436 204.638 241.942 194.792 221.019 194.792C219.85 194.792 218.686 194.824 217.529 194.882C237.091 195.87 254.686 204.762 258.591 206.862C259.088 207.129 259.396 207.647 259.396 208.21V220.514C259.396 231.768 250.277 240.892 239.029 240.892H246.01C257.258 240.892 266.377 231.768 266.377 220.514V208.21C266.377 207.647 266.069 207.128 265.572 206.862Z" fill="#FFC344"/>
<path d="M224.027 247.584H218.013C216.37 247.584 215.039 246.252 215.039 244.61V236.269C215.039 234.626 216.37 233.295 218.013 233.295H224.027C225.669 233.295 227.001 234.626 227.001 236.269V244.61C227.001 246.252 225.669 247.584 224.027 247.584Z" fill="#FE646F" stroke="black" stroke-width="2"/>
<path d="M221.032 233.295H224.027C225.669 233.295 227 234.626 227 236.269V244.61C227 246.252 225.669 247.584 224.027 247.584H221.032C221.652 246.755 222.019 245.726 222.019 244.61V236.269C222.019 235.153 221.652 234.124 221.032 233.295Z" fill="#FD4755" stroke="black" stroke-width="2"/>
<path d="M175.946 211.002L166.16 215.45C164.578 216.142 162.008 218.89 164.381 224.346C166.753 229.803 174.661 253.902 178.318 265.269M189.587 270.904H258.088C259.472 270.805 262.595 269.539 264.019 265.269C265.442 260.999 274.101 235.22 278.253 222.864C279.05 220.491 277.007 215.45 272.025 213.078L266.391 210.409M264.019 205.368C266.49 193.21 262.499 167.146 237.886 163.26C208.973 158.694 196.926 165.669 189.587 169.783C180.69 176.9 174.404 187.101 178.911 205.368M175.946 212.485C174.463 221.579 175.886 240.004 193.442 240.953C207.676 240.953 213.013 240.953 213.903 240.953" stroke="black" stroke-width="2" stroke-linecap="round" stroke-linejoin="round"/>
<path d="M267.138 212.485C268.62 221.579 267.197 240.004 249.643 240.953C235.409 240.953 230.072 240.953 229.182 240.953" stroke="black" stroke-width="2" stroke-linecap="round" stroke-linejoin="round"/>
</svg>
