<svg xmlns="http://www.w3.org/2000/svg" width="54.7" height="52">
    <defs>
        <style>
            .cls-3{fill:#333}.cls-14,.cls-4,.cls-7{fill:none}.cls-6{fill:#8fff9b}.cls-7{stroke:#01070f}.cls-14,.cls-7{stroke-linecap:round;stroke-linejoin:round;stroke-miterlimit:10;stroke-width:.3px}.cls-8{fill:#ff8585}.cls-10{fill:#ffdf41}.cls-11{fill:#1e6111}.cls-14{stroke:#030f20}.cls-16{fill:#327ef9}
        </style>
    </defs>
    <g id="_16_Dmart_Fashion" data-name="16_Dmart Fashion" transform="translate(2.7)">
        <ellipse id="Oval" cx="26" cy="1.868" rx="26" ry="1.868" transform="translate(0 48.264)" style="fill:#dce0e9"/>
        <g id="Group_181" data-name="Group 181" transform="translate(-3 11)">
            <path id="Path" d="M0 .806v5.639a.806.806 0 0 0 .806.806 6.26 6.26 0 0 1 6.26 6.26v.189a.806.806 0 0 0 .806.806h4.086a.806.806 0 0 0 .806-.806v-.185a6.26 6.26 0 0 1 6.26-6.26.806.806 0 0 0 .806-.806V.806A.806.806 0 0 0 19.023 0H.806A.806.806 0 0 0 0 .806z" transform="translate(7.404 24.763)" style="fill:#ea6565"/>
            <path id="Path-2" data-name="Path" class="cls-3" d="M19.828 3.223V.806A.806.806 0 0 0 19.023 0H.806A.806.806 0 0 0 0 .806v2.417z" transform="translate(7.404 24.763)"/>
            <path id="Path-3" data-name="Path" class="cls-3" d="M.168 7.558a.138.138 0 0 1-.138-.13C.018 7.191-.243 1.617 1.012.3a.872.872 0 0 1 .644-.3.138.138 0 0 1 0 .275.6.6 0 0 0-.444.213C.037 1.722.3 7.357.305 7.414a.138.138 0 0 1-.131.144z" transform="translate(13.59 27.656)"/>
            <path id="Path-4" data-name="Path" class="cls-3" d="M1.606 7.558H1.6a.137.137 0 0 1-.13-.145c0-.057.283-5.692-.888-6.925A.6.6 0 0 0 .138.275a.138.138 0 0 1 0-.275.871.871 0 0 1 .643.3c1.251 1.319.975 6.893.963 7.129a.138.138 0 0 1-.138.129z" transform="translate(19.275 27.656)"/>
        </g>
        <path id="Rectangle" class="cls-4" d="M0 0h52v52H0z"/>
        <g id="Collared_T-shirt" transform="translate(-1.91 -6.876)">
            <path id="Path_981" data-name="Path 981" d="M29.322 11.885c1.246-.85 2.576-2.27 2.359-2.667-3.981-.556-4.781-.251-5.642.205s.938 1.407 2.14 2.359c.221.733-.102 1.261 1.143.103z" transform="translate(-6.802 -.538)" style="fill:#fff"/>
            <path id="Path_1006" data-name="Path 1006" class="cls-6" d="m12.281 22.057-4.406-3.918 3.373-4.952 1.469-1.687 2.5-1.36 2.183-.87.381 2.775.707 1.524 1.085-2.069 1.088-.816.816 1.36V20.7l1.415-.871-.272-2.721v-5.06l.272-.925.925.381.979 2.068.816-.381.871-2.5V8.617s2.024 1.11 3.446 1.828a12.915 12.915 0 0 1 3.083 2.742l2.612 3.918.87 1.252-4.571 3.7-1.467-1.687-.435 16.814-6.2.381H18.1l-4.027-.381V21.567l-.139-1.1z" transform="translate(-.002 -.094)"/>
            <path id="Path_982" data-name="Path 982" class="cls-7" d="M30.058 15.2a2.137 2.137 0 0 1 1.244-1.55c-.426 2.292 0 8.721 0 8.721a1.634 1.634 0 0 1-1.267.493v-7.433z" transform="translate(-8.522 -2.513)"/>
            <g id="Group_185" data-name="Group 185" transform="translate(14.138 7.111)">
                <path id="Path_983" data-name="Path 983" class="cls-8" d="M31.079 19.4a1.689 1.689 0 0 0-1.084 1.451l-.023.228.072 4.139h.089a2.961 2.961 0 0 0 1.114-.542 21.179 21.179 0 0 1-.168-5.276z" transform="translate(-22.656 -11.983)"/>
                <path id="Path_984" data-name="Path 984" class="cls-8" d="M31.785 8.637a10.5 10.5 0 0 0-6.281.546 3.364 3.364 0 0 0 .59 1.038 23.621 23.621 0 0 1 5.692-.249 3.916 3.916 0 0 0-.001-1.335z" transform="translate(-20.92 -8.433)"/>
                <path id="Path_985" data-name="Path 985" d="M35.2 14.395a.361.361 0 0 0 .058 0 .339.339 0 0 0 .24-.1 3.4 3.4 0 0 0 .654-.959 8.607 8.607 0 0 0 .229-2.376l-.107-1.36a1.336 1.336 0 0 1-.011.246 6.026 6.026 0 0 1-1.913 3.087c.064.062-.214-.214-.158-.147a3.846 3.846 0 0 0 .206.739c.071.079.114.136.114.136l.033.169a1.022 1.022 0 0 0 .655.565z" transform="translate(-24.253 -8.067)" style="fill:#bad6ee"/>
                <path id="Path_986" data-name="Path 986" class="cls-10" d="M24.792 13.411c-.017 0-.188.353-.205.352-.081 0-.224-.377-.278-.44a6.167 6.167 0 0 1-.6-1.363 15.334 15.334 0 0 1-.234-2.272l.659-.6c-.008.073.654-.6.659-.528a6.128 6.128 0 0 0 1.891 2.755c-.062.052-.4.266-.454.322-.065.269-.356.235-.44.41-.068.068-.481.4-.481.4-.012.054-.18.566-.193.616-.271.405-.248.337-.324.348z" transform="translate(-20.238 -7.814)"/>
            </g>
            <g id="Group_186" data-name="Group 186" transform="translate(7.841 7.109)">
                <path id="Path_987" data-name="Path 987" class="cls-4" d="M25 7.277a12.57 12.57 0 0 0-6.281.448l-1.3 1.212-3.662 1.738a6.654 6.654 0 0 0-2.425 2.263L7.841 18.21l4.528 3.815 1.553-1.648s.257 5.238.257 16.815a66.92 66.92 0 0 0 7.879.423h.174a66.931 66.931 0 0 0 7.879-.423c0-11.577.259-16.815.259-16.815l1.553 1.648 4.528-3.815-3.494-5.271a6.642 6.642 0 0 0-2.423-2.263l-4.051-2.1z" transform="translate(-7.841 -7.11)"/>
                <path id="Path_988" data-name="Path 988" class="cls-4" d="M16.748 21.618a27.714 27.714 0 0 0 .6 4.329" transform="translate(-11.261 -12.681)"/>
                <path id="Path_989" data-name="Path 989" class="cls-7" d="M45.039 21.618a27.788 27.788 0 0 1-.6 4.329" transform="translate(-21.896 -12.681)"/>
                <path id="Path_990" data-name="Path 990" class="cls-7" d="M30.058 15.2a2.137 2.137 0 0 1 1.244-1.55c-.426 2.292 0 8.721 0 8.721a1.634 1.634 0 0 1-1.267.493v-7.433z" transform="translate(-16.363 -9.622)"/>
                <path id="Path_991" data-name="Path 991" class="cls-7" d="M32.321 11.133c.91-.374 2.75-2.528 2.082-3.751l1.48 1.3s.222 3.37-1.348 4.94c0 0-.634-.109-.9-1.705.004.001-.769-1.007-1.314-.784z" transform="translate(-17.241 -7.214)"/>
                <path id="Path_992" data-name="Path 992" class="cls-7" d="M27.066 11.295c-1.1-1.1-2.623 2.333-2.623 2.333a8.061 8.061 0 0 1-1.056-4.306l1.3-1.212a5.508 5.508 0 0 0 1.8 2.782 2.67 2.67 0 0 1 .579.403z" transform="translate(-13.807 -7.493)"/>
                <path id="Path_993" data-name="Path 993" class="cls-7" d="M31.786 7.277c.668 1.224-1.172 3.378-2.082 3.751a3.081 3.081 0 0 0-1.385 1.662l-.023.154.046-.654a1.232 1.232 0 0 0-.535-1.35l.076.07a2.658 2.658 0 0 0-.583-.4 5.508 5.508 0 0 1-1.8-2.782 12.558 12.558 0 0 1 6.286-.451z" transform="translate(-14.624 -7.109)"/>
                <path id="Path_994" data-name="Path 994" class="cls-7" d="M31.761 8.669a1.65 1.65 0 0 0 .025-1.392 12.57 12.57 0 0 0-6.281.448 5 5 0 0 0 .472 1.175 13.511 13.511 0 0 1 5.784-.231z" transform="translate(-14.624 -7.11)"/>
            </g>
            <path id="Path_995" data-name="Path 995" class="cls-10" d="M35.148 14.323a.361.361 0 0 0 .058 0c.09 0 .285-.3.35-.369a2.875 2.875 0 0 0 .528-.923c.3-1.189.515-2.8.515-2.8l-.059-.806c0 .08-1.219-1.066-1.231-.982a6.845 6.845 0 0 1-1.964 3.385c.064.062.751.593.806.659a7.177 7.177 0 0 0 .195.957c.071.079.114.136.114.136l.033.169a1.022 1.022 0 0 0 .655.574z" transform="translate(-10.064 -.884)"/>
            <g id="Group_187" data-name="Group 187" transform="translate(7.841 7.109)">
                <path id="Path_996" data-name="Path 996" class="cls-7" d="M25 7.277a12.57 12.57 0 0 0-6.281.448l-1.3 1.212-3.662 1.738a6.654 6.654 0 0 0-2.425 2.263L7.841 18.21l4.528 3.815 1.553-1.648s.257 5.238.257 16.815a66.92 66.92 0 0 0 7.879.423h.174a66.931 66.931 0 0 0 7.879-.423c0-11.577.259-16.815.259-16.815l1.553 1.648 4.528-3.815-3.494-5.271a6.642 6.642 0 0 0-2.423-2.263l-4.051-2.1z" transform="translate(-7.841 -7.11)"/>
                <path id="Path_997" data-name="Path 997" class="cls-7" d="M16.748 21.618a27.714 27.714 0 0 0 .6 4.329" transform="translate(-11.261 -12.681)"/>
                <path id="Path_998" data-name="Path 998" class="cls-7" d="M45.039 21.618a27.788 27.788 0 0 1-.6 4.329" transform="translate(-21.896 -12.681)"/>
                <path id="Path_999" data-name="Path 999" class="cls-7" d="M30.058 15.2a2.137 2.137 0 0 1 1.244-1.55c-.426 2.292 0 8.721 0 8.721a1.634 1.634 0 0 1-1.267.493v-7.433z" transform="translate(-16.363 -9.622)"/>
                <path id="Path_1000" data-name="Path 1000" class="cls-7" d="M32.321 11.133c.91-.374 2.75-2.528 2.082-3.751l1.48 1.3s.222 3.37-1.348 4.94c0 0-.634-.109-.9-1.705.004.001-.769-1.007-1.314-.784z" transform="translate(-17.241 -7.214)"/>
                <path id="Path_1001" data-name="Path 1001" class="cls-7" d="M27.066 11.295c-1.1-1.1-2.623 2.333-2.623 2.333a8.061 8.061 0 0 1-1.056-4.306l1.3-1.212a5.508 5.508 0 0 0 1.8 2.782 2.67 2.67 0 0 1 .579.403z" transform="translate(-13.807 -7.493)"/>
                <path id="Path_1002" data-name="Path 1002" class="cls-7" d="M31.786 7.277c.668 1.224-1.172 3.378-2.082 3.751a3.081 3.081 0 0 0-1.385 1.662l-.023.154.046-.654a1.232 1.232 0 0 0-.535-1.35l.076.07a2.658 2.658 0 0 0-.583-.4 5.508 5.508 0 0 1-1.8-2.782 12.558 12.558 0 0 1 6.286-.451z" transform="translate(-14.624 -7.109)"/>
                <path id="Path_1003" data-name="Path 1003" class="cls-4" d="M31.761 8.669a1.65 1.65 0 0 0 .025-1.392 12.57 12.57 0 0 0-6.281.448 5 5 0 0 0 .472 1.175 9.182 9.182 0 0 1 1.078-.242c.414-.082 2.729-.164 2.729-.164s1.136.053 1.977.175z" transform="translate(-14.624 -7.11)"/>
            </g>
            <path id="Path_1007" data-name="Path 1007" class="cls-6" d="m30.551 20.815-.231 16.749-4.775.6-7.938-.2-4.017-.513.489-15.879s3.911-.564 8.029-.752 8.443-.005 8.443-.005z" transform="translate(-.002 -.094)"/>
            <path id="Path_1011" data-name="Path 1011" class="cls-10" d="m30.551 20.786-.232 10.854-4.775.388-7.939-.128-4.017-.333.649-4.449s3.6-1.625 7.368-2.9 8.946-3.432 8.946-3.432z" transform="translate(-.002 6.042)"/>
            <path id="Path_1004" data-name="Path 1004" class="cls-11" d="m-3.752 25.464 16.411-6.638v1.429l-16.411 6.583z" transform="translate(17.89 .88)"/>
            <path id="Path_1009" data-name="Path 1009" class="cls-11" d="m-3.752 25.464 16.411-6.638v1.429l-16.411 6.583z" transform="translate(17.89 3.88)"/>
            <path id="Path_1010" data-name="Path 1010" class="cls-11" d="m-3.752 25.464 16.411-6.638v1.429l-16.411 6.583z" transform="translate(17.89 6.88)"/>
            <path id="Path_1008" data-name="Path 1008" d="M.234.266C.469.266 1.508.2 1.2.5s-.693.766-.969.766S-.413.774-.688.5.047.266.234.266z" transform="translate(21.91 8.876)" style="fill:#2e260d"/>
        </g>
        <g id="Jeans" transform="translate(72.289 5.332)">
            <g id="Group_184" data-name="Group 184" transform="translate(-44.948 8.581)">
                <path id="Path_980" data-name="Path 980" d="m-53.984 15.754.618 1.978s1.09.946 2.062 4.884c.975 4.124 2.032 11.147 2.032 11.147s.433 5.025.676 6.688a18.158 18.158 0 0 0 6.876-.751c-.475-3.788-2.766-19.247-2.766-19.247l-.982-6.819-.918-5.9-.522-2.653-5.118.949-6.294-.59-1.442-.525-1.377 9.114-3.868 26.03 7.212.394s1.705-16.209 2.689-18.752 1.808-4 1.742-4.624a4.221 4.221 0 0 1-.62-1.323z" transform="translate(65.008 -4.913)" style="fill:#5e8bc7"/>
                <path id="Path_974" data-name="Path 974" class="cls-4" d="M28.4 22.6c.042.061.168.253.207.32 3.065 5.133 4.354 22.561 4.354 22.561a35.778 35.778 0 0 0 6.938-.769l-2.641-19.157-.974-6.146-1.1-6.977-.443-2.472s-1.727.813-6.251.914h-.243c-4.522-.1-6.349-.9-6.349-.9l-.438 2.41-2.182 13.47-2.642 19.053a47.555 47.555 0 0 0 7.135.572s1.288-17.428 4.352-22.561c.039-.067.167-.26.206-.32z" transform="translate(-16.624 -9.828)"/>
                <path id="Line_37" data-name="Line 37" class="cls-14" transform="translate(3.736 3.464)" d="M3.935 0 0 6.119"/>
                <path id="Path_975" data-name="Path 975" class="cls-14" d="m41.254 20.182-.645-4.072-.468-2.957a11.305 11.305 0 0 1-2.948.817l4.061 6.212" transform="translate(-21.594 -10.6)"/>
                <path id="Path_976" data-name="Path 976" class="cls-14" d="m21.547 20.182.645-4.072.468-2.957a11.316 11.316 0 0 0 2.947.817l-4.06 6.212" transform="translate(-17.811 -10.6)"/>
                <path id="Line_38" data-name="Line 38" class="cls-14" transform="translate(10.915 10.766)" d="m0 0 .792 1.971"/>
                <path id="Path_977" data-name="Path 977" class="cls-14" d="M34.007 14.463c-1.1.075-1.918.06-1.918.06h-.241s.692 6.284-.833 7.159l.494.19c3.879.407 2.498-7.409 2.498-7.409z" transform="translate(-20.1 -10.916)"/>
                <path id="Path_978" data-name="Path 978" class="cls-14" d="m22.993 12.38.438-2.41s1.827.8 6.349.9h.243c4.523-.1 6.251-.914 6.251-.914l.434 2.421a11.308 11.308 0 0 1-2.947.817 25.421 25.421 0 0 1-3.612.236h-.241s-4.551.038-6.915-1.05z" transform="translate(-18.161 -9.828)"/>
                <path id="Path_979" data-name="Path 979" class="cls-14" d="M33.957 12.7a.184.184 0 0 1-.181.187.185.185 0 1 1 0-.37.182.182 0 0 1 .181.183z" transform="translate(-20.723 -10.447)"/>
                <path id="Line_39" data-name="Line 39" class="cls-14" transform="translate(11.74 1.411)" d="M0 0v1.88"/>
            </g>
        </g>
        <g id="Group_182" data-name="Group 182" transform="translate(-5 -12.304)">
            <path id="Path-5" data-name="Path" d="M5.817 0v11.368a1.18 1.18 0 0 1-.347.835L0 17.433a7.817 7.817 0 0 1 5.507 5.261l5.12-5.137 1.428-1.657a3.544 3.544 0 0 0 1.035-2.5v-2.525L13.095 0z" transform="translate(3.856 32.673)" style="fill:#e5e5e5"/>
            <path id="Path-6" data-name="Path" class="cls-16" d="M3.8 0v2.526a3.544 3.544 0 0 1-1.035 2.5L1.208 6.582A3.8 3.8 0 0 1 3.8 0z" transform="translate(13.321 43.547)"/>
            <path id="Shape" class="cls-3" d="m1.384 6.986-.119-.111A3.972 3.972 0 0 1 3.97 0h.169v2.7a3.715 3.715 0 0 1-1.085 2.62L1.385 6.986zM3.8.342a3.634 3.634 0 0 0-2.421 6.171l1.435-1.438A3.377 3.377 0 0 0 3.8 2.7V.342z" transform="translate(13.148 43.378)"/>
            <path id="Path-7" data-name="Path" class="cls-16" d="M1.789 0 1.06.729a3.639 3.639 0 0 0 5.146 5.148l.729-.731A7.178 7.178 0 0 0 1.789 0z" transform="translate(2.479 50.106)"/>
            <path id="Shape-2" data-name="Shape" class="cls-3" d="M3.823 7.3h-.012A3.807 3.807 0 0 1 1.119.8l.8-.8.091.024a7.33 7.33 0 0 1 5.267 5.268l.024.094-.8.8A3.761 3.761 0 0 1 3.823 7.3zM2.018.377l-.66.66a3.47 3.47 0 0 0 4.907 4.908l.66-.662A7.02 7.02 0 0 0 2.018.377z" transform="translate(2.3 49.918)"/>
            <path id="Path-8" data-name="Path" class="cls-16" d="M6.1 0H1.179A1.178 1.178 0 0 0 0 1.179v2.278h7.277V1.179A1.18 1.18 0 0 0 6.1 0z" transform="translate(9.845 29.216)"/>
            <path id="Shape-3" data-name="Shape" class="cls-3" d="M7.616 3.8H0V1.348A1.351 1.351 0 0 1 1.348 0h4.92a1.351 1.351 0 0 1 1.348 1.348v2.447zM1.348.339A1.011 1.011 0 0 0 .339 1.348v2.109h6.938V1.348A1.012 1.012 0 0 0 6.268.339z" transform="translate(9.676 29.047)"/>
            <path id="Path-9" data-name="Path" class="cls-3" d="M.419 4.819A.169.169 0 0 1 .25 4.65V.169a.169.169 0 1 1 .339 0V4.65a.169.169 0 0 1-.17.169z" transform="translate(11.801 35.243)"/>
            <path id="Path-10" data-name="Path" class="cls-3" d="M.419 4.819A.169.169 0 0 1 .25 4.65V.169a.169.169 0 1 1 .339 0V4.65a.169.169 0 0 1-.17.169z" transform="translate(14.447 35.243)"/>
        </g>
    </g>
</svg>
