<svg xmlns="http://www.w3.org/2000/svg" width="52" height="52" viewBox="0 0 52 52">
    <g fill="none" fill-rule="evenodd">
        <ellipse cx="26" cy="50.132" fill="#DCE0E9" fill-rule="nonzero" rx="26" ry="1.868"/>
        <path fill="#B4E9FD" fill-rule="nonzero" d="M10.085 40.453s.757-6.432-2.523-16.774C5.383 15.168 6.865 6.658 12.3 2.964c6.684-4.414 12.895 2.028 12.921 7.977.027 6.174-2.9 16.396-2.27 24.215.63 7.82 1.135 13.37-5.802 13.37-6.936 0-7.11-4.923-7.063-8.073z"/>
        <path fill="#2F6DFF" fill-rule="nonzero" d="M15.215 11.193V9.175c0-.334.133-.655.37-.892.236-.236.557-.369.892-.369.334 0 .655.133.891.37.237.236.37.557.37.891v2.018s11.45 5.544 4.269 24.594c-.614 0-1.19-.295-1.549-.794-.358-.498-.455-1.138-.26-1.72 1.58-4.749 3.862-14.96-3.749-19.431 0 0-10.227 3.6-3.918 18.45.262.604.203 1.3-.158 1.851-.36.552-.974.885-1.633.887h-.017s-9.129-16.774 4.492-23.837z"/>
        <path fill="#333" fill-rule="nonzero" d="M22.18 36.037h-.173c-.694 0-1.346-.334-1.751-.897-.406-.564-.516-1.288-.296-1.946 1.417-4.255 3.895-14.601-3.533-19.075-2.141.959-3.85 2.678-4.795 4.825-1.518 3.454-1.138 7.912 1.13 13.25.294.689.223 1.479-.19 2.103-.407.615-1.095.984-1.832.983h-.148l-.088-.13c-.047-.086-4.67-8.716-2.383-16.188 1.096-3.469 3.572-6.333 6.845-7.92V9.175c.006-.83.681-1.499 1.51-1.499.83 0 1.505.67 1.512 1.5v1.868c1.303.738 10.995 6.949 4.253 24.832l-.061.161zm-5.704-22.47l.1.06c7.871 4.623 5.32 15.334 3.859 19.725-.16.477-.094 1.001.179 1.424.273.424.722.7 1.223.752 6.88-18.46-4.096-24.056-4.208-24.11l-.141-.068V9.175c-.006-.554-.457-1-1.011-1-.555 0-1.006.446-1.011 1v2.17l-.135.07c-3.216 1.517-5.655 4.304-6.732 7.693-2.072 6.766 1.7 14.547 2.273 15.666.522-.036.997-.315 1.283-.753.32-.485.375-1.098.147-1.632-2.327-5.475-2.705-10.07-1.123-13.656.998-2.317 2.858-4.156 5.187-5.127l.11-.039z"/>
        <path fill="#333" fill-rule="nonzero" d="M16.154 10.877c-.138 0-.25-.112-.25-.25V8.934c0-.138.112-.25.25-.25s.25.112.25.25v1.693c0 .138-.112.25-.25.25zM11.97 34.565c-.1 0-.19-.058-.23-.149l-1.964-4.477c-.036-.082-.025-.177.028-.249.053-.072.14-.11.229-.1.089.01.165.066.201.148l1.964 4.477c.034.077.027.166-.02.237-.046.07-.124.113-.209.113z"/>
        <path fill="#C4A087" fill-rule="nonzero" d="M26.769 35.396l5.904-3.129s2.124 2.788-.944 4.33c-1.72.9-3.841.387-4.96-1.2z"/>
        <path fill="#333" fill-rule="nonzero" d="M29.897 37.316c-1.321-.064-2.544-.716-3.333-1.777-.041-.06-.055-.133-.038-.202.017-.07.063-.128.126-.161l5.903-3.13c.108-.057.242-.028.316.07.592.789.845 1.78.704 2.757-.248.88-.887 1.599-1.733 1.948-.6.316-1.267.486-1.945.495zm-2.746-1.839c1.072 1.346 2.957 1.725 4.466.898.71-.286 1.251-.88 1.47-1.612.111-.76-.066-1.534-.497-2.17l-5.44 2.884z"/>
        <path fill="#E5484B" fill-rule="nonzero" d="M7.991 49.742h34.607c.528 0 1.034-.21 1.408-.583.373-.374.583-.88.583-1.408V35.015s-2.655-.887-4.565 2.227c-2.65 4.143-8.588 3.44-10.186-.24 0 0-.79-2.126-1.487-2.043-2.164.44-12.442 4.21-18.894 6.275-2.06.66-3.458 2.577-3.457 4.74v1.777c0 .528.21 1.034.583 1.408.374.373.88.583 1.408.583z"/>
        <path fill="#333" fill-rule="nonzero" d="M42.598 49.992H7.99c-1.237-.002-2.24-1.004-2.241-2.241v-1.777c-.006-2.274 1.464-4.289 3.63-4.978 2.709-.867 6.044-2.018 9.269-3.13 4.497-1.552 8.381-2.892 9.653-3.151.845-.106 1.569 1.658 1.77 2.2.81 1.69 2.482 2.797 4.353 2.883 2.158.182 4.237-.856 5.388-2.69 1.987-3.241 4.825-2.34 4.854-2.33l.171.058V47.75c-.001 1.237-1.003 2.24-2.24 2.24zM28.397 35.207h-.016c-1.218.25-5.275 1.65-9.569 3.131-3.228 1.114-6.565 2.266-9.279 3.135-1.96.623-3.288 2.445-3.283 4.501v1.777c.001.961.78 1.74 1.741 1.74h34.607c.96 0 1.74-.779 1.74-1.74V35.209c-.59-.129-2.575-.325-4.101 2.164-1.246 1.996-3.507 3.126-5.851 2.923-2.06-.101-3.897-1.33-4.778-3.194-.34-.915-.912-1.895-1.211-1.895z"/>
        <path fill="#FFF" fill-rule="nonzero" d="M9.457 41.234C7.397 41.894 6 43.811 6 45.974v1.777c0 .528.21 1.034.583 1.408.374.373.88.583 1.408.583h7.507c-.353-3.353-1.553-6.56-3.489-9.32-.927.294-1.789.568-2.552.813z"/>
        <path fill="#333" fill-rule="nonzero" d="M15.498 49.992H7.991c-1.237-.002-2.24-1.004-2.241-2.241v-1.777c-.006-2.274 1.464-4.289 3.63-4.978.764-.244 1.626-.519 2.554-.812.102-.032.213.004.276.09 1.96 2.793 3.177 6.04 3.536 9.434.01.072-.012.144-.06.199-.047.054-.116.085-.188.085zm-5.965-8.52c-1.96.624-3.288 2.446-3.283 4.502v1.777c.001.961.78 1.74 1.741 1.74h7.219c-.37-3.15-1.502-6.162-3.297-8.776-.862.273-1.665.529-2.38.758z"/>
        <path fill="#C4A087" fill-rule="nonzero" d="M6 46.289h38.589v1.462c0 1.1-.892 1.99-1.991 1.99H7.99c-1.1 0-1.991-.89-1.991-1.99v-1.462z"/>
        <path fill="#333" fill-rule="nonzero" d="M42.598 49.992H7.99c-1.237-.002-2.24-1.004-2.241-2.241v-1.462c0-.138.112-.25.25-.25h38.589c.138 0 .25.112.25.25v1.462c-.002 1.237-1.004 2.24-2.241 2.24zM6.25 46.539v1.212c.001.961.78 1.74 1.741 1.74h34.607c.96 0 1.74-.779 1.74-1.74v-1.212H6.25z"/>
        <path fill="#333" fill-rule="nonzero" d="M44.352 48.266H19.765c-.138 0-.25-.112-.25-.25s.112-.25.25-.25h24.587c.138 0 .25.112.25.25s-.112.25-.25.25zM18.533 41.848c-.097 0-.185-.056-.226-.144l-1.328-2.824c-.054-.124 0-.269.123-.326.122-.058.268-.008.33.113l1.327 2.824c.028.06.031.13.009.191-.023.063-.07.114-.13.142-.032.015-.069.024-.105.024zM22.196 40.78c-.097 0-.185-.055-.226-.143l-1.408-2.994c-.054-.124 0-.27.123-.327.122-.057.268-.007.33.114l1.407 2.994c.028.06.032.13.009.191-.023.063-.069.114-.13.142-.032.015-.069.024-.105.024zM25.544 39.729c-.096 0-.184-.056-.226-.144l-1.447-3.078c-.053-.124.001-.268.123-.325.122-.058.268-.008.33.112l1.446 3.079c.029.06.032.128.01.19-.023.063-.07.114-.13.142-.033.016-.069.024-.106.024zM39.51 44.126h-.024c-.138-.001-.25-.114-.248-.252.001-.138.114-.25.252-.248h.01c.121 0 2.182-.026 2.768-1.61.051-.124.191-.185.317-.138.126.046.193.183.151.31-.694 1.879-2.948 1.938-3.226 1.938z"/>
        <path d="M0 0H52V52H0z"/>
    </g>
</svg>
