<svg xmlns="http://www.w3.org/2000/svg" width="52" height="52" viewBox="0 0 52 52">
    <g fill="none" fill-rule="evenodd">
        <ellipse cx="26" cy="50.132" fill="#DCE0E9" fill-rule="nonzero" rx="26" ry="1.868"/>
        <path fill="#8CC63F" fill-rule="nonzero" d="M34.885 4.043H6.9l-1.998 22.73 1.998 22.731h27.986c1.654-.005 2.993-1.344 2.998-2.997V7.04c-.005-1.654-1.344-2.993-2.998-2.998z"/>
        <rect width="16.995" height="8.992" x="13.893" y="11.037" fill="#F2F2F2" fill-rule="nonzero" rx=".71"/>
        <path fill="#5A8C40" fill-rule="nonzero" d="M2.903 4.043H6.9V49.504H2.903zM27.892 14.784H16.89c-.414 0-.75-.336-.75-.75s.336-.75.75-.75h11.001c.414 0 .75.336.75.75s-.336.75-.75.75zM27.892 17.781H16.89c-.268 0-.515-.143-.649-.375s-.134-.517 0-.75c.134-.231.381-.374.649-.374h11.001c.414 0 .75.336.75.75 0 .413-.336.749-.75.749z"/>
        <path fill="#333" fill-rule="nonzero" d="M37.605 10.209c-.139 0-.25-.112-.25-.25V6.69c-.002-1.186-.963-2.148-2.15-2.149h-16.88c-.139 0-.25-.112-.25-.25s.111-.25.25-.25h16.88c1.463.002 2.648 1.187 2.65 2.649v3.269c0 .138-.112.25-.25.25zM6.9 49.754c-.139 0-.25-.112-.25-.25V4.043c0-.138.111-.25.25-.25.137 0 .25.112.25.25v45.46c0 .139-.113.25-.25.25z"/>
        <path fill="#F97722" fill-rule="nonzero" d="M10.08 41.256v5.077c0 .779.31 1.525.86 2.075.55.55 1.297.86 2.075.86h31.963c1.62 0 2.935-1.314 2.935-2.935v-5.077H10.08z"/>
        <path fill="#FCE655" fill-rule="nonzero" d="M47.914 36.175v5.082H10.078v-5.082c.001-.778.311-1.525.862-2.074.552-.55 1.299-.858 2.077-.857h31.958c.779 0 1.526.307 2.077.857.551.55.861 1.296.862 2.074z"/>
        <path fill="#FEFEFC" fill-rule="nonzero" d="M35.403 33.244c-.45 4.54-4.263 8.002-8.825 8.013-.27 0-.55-.017-.812-.042-.356-.026-.71-.078-1.06-.156-.273-.057-.545-.128-.812-.213-.502-.161-.988-.367-1.453-.616-2.641-1.39-4.406-4.015-4.696-6.986h17.658z"/>
        <path fill="#333" fill-rule="nonzero" d="M27.638 33.24L27.638 43.034 27.408 43.034 27.063 46.687 26.808 43.034 26.579 43.034 26.579 33.24zM25.881 40.842L25.881 43.034 23.894 43.034 23.894 44.216 23.164 47.221 22.441 44.216 22.441 43.034 21.513 43.034 21.513 40.842 22.441 40.842 22.441 33.24 23.894 33.24 23.894 40.842 24.707 40.842 24.707 33.24 25.766 33.24 25.766 40.842z"/>
        <path fill="#FF5F5F" fill-rule="nonzero" d="M31.904 34.81H38.574V37.410000000000004H31.904z"/>
        <path fill="#333" fill-rule="nonzero" d="M31.904 37.411H41.194V39.634H31.904zM20.5 48h-5.333c-.138 0-.25-.112-.25-.25s.112-.25.25-.25H20.5c.138 0 .25.112.25.25s-.112.25-.25.25zM11.447 39.182c-.138 0-.25-.112-.25-.25v-3.139c-.013-.769.6-1.403 1.368-1.418h2.602c.138 0 .25.112.25.25s-.112.25-.25.25h-2.602c-.492.015-.88.425-.868.918v3.14c0 .137-.112.25-.25.25z"/>
        <path fill="#FFF" fill-rule="nonzero" d="M44.445 41.634h.13v.008c-.043-.005-.087-.008-.13-.008z"/>
        <path fill="#333" fill-rule="nonzero" d="M44.57 41.89c-.01 0-.022 0-.032-.002-.031-.004-.063-.006-.094-.006-.135-.003-.243-.113-.243-.247 0-.135.108-.245.243-.248h.13c.066 0 .129.026.175.073.046.046.072.11.072.175.001.14-.111.254-.25.255h-.001z"/>
        <path fill="#FFF" fill-rule="nonzero" d="M40.674 41.638v-.004h.098c-.035 0-.067.002-.098.004z"/>
        <path fill="#333" fill-rule="nonzero" d="M40.674 41.886c-.063 0-.124-.025-.17-.068-.05-.046-.078-.112-.077-.18v-.003c0-.066.026-.13.072-.176.046-.046.11-.072.175-.072h.097c.135.003.243.113.243.247 0 .135-.108.245-.243.248l-.082.004h-.015zM44.184 49.874l-2.941-.003c-.193 0-.378-.077-.514-.214-.137-.136-.213-.321-.213-.514l.006-5.603 4.395.005-.005 5.603c0 .401-.326.726-.728.726z"/>
        <path fill="#333" fill-rule="nonzero" d="M44.187 50.124l-2.942-.003c-.54-.001-.976-.438-.976-.977V43.54c0-.139.112-.25.25-.25l4.395.003c.138 0 .25.112.25.25v5.603c0 .54-.438.977-.977.977zm-3.418-6.334v5.354c0 .263.213.476.476.477l2.942.003c.263 0 .477-.213.477-.477v-5.353l-3.895-.003z"/>
        <path fill="#FF5F5F" fill-rule="nonzero" d="M40.36 16.052H44.914V41.634H40.36z"/>
        <path fill="#DE9FA7" fill-rule="nonzero" d="M40.36 16.052L41.56 11.225 43.983 11.947 44.914 16.052 42.637 17.845z"/>
        <path fill="#333" fill-rule="nonzero" d="M42.637 41.893c-.138 0-.25-.112-.25-.25V17.845c0-.138.112-.25.25-.25s.25.112.25.25v23.798c0 .138-.112.25-.25.25z"/>
        <path fill="#FFF" fill-rule="nonzero" d="M40.519 41.633H44.915V43.543H40.519z"/>
        <path fill="#333" fill-rule="nonzero" d="M44.914 43.794l-4.395-.003c-.138 0-.25-.112-.25-.25v-1.91c0-.139.112-.25.25-.25l4.395.003c.138 0 .25.112.25.25v1.91c0 .138-.112.25-.25.25zm-4.145-.503l3.895.003v-1.41l-3.895-.004v1.41zM42.643 18.095c-.056 0-.11-.019-.155-.053l-2.148-1.68c-.07-.055-.106-.144-.093-.232.012-.088.071-.163.154-.197.083-.033.177-.02.247.036l1.994 1.559 1.988-1.57-1.071-4.002c-.036-.133.043-.27.177-.306.133-.033.268.045.305.178l1.114 4.16c.027.096-.007.198-.086.26l-2.271 1.793c-.044.035-.099.054-.155.054z"/>
        <path fill="#333" fill-rule="nonzero" d="M44.914 41.884c-.138 0-.25-.112-.25-.25V16.052c0-.138.112-.25.25-.25s.25.112.25.25v25.582c0 .138-.112.25-.25.25zM41.56 11.225L43.983 11.947 42.637 7.411z"/>
        <path d="M0 0H52V52H0z"/>
    </g>
</svg>
